<svg width="154" height="154" fill="none" xmlns="http://www.w3.org/2000/svg"><path d="M129.701 37.225a3.662 3.662 0 0 0-2.886-1.086c-11.035.828-22.03 1.635-30.84 2.279a18.304 18.304 0 0 0-8.344-8.113c.56-6.1-1.776-12.125-6.477-16.294l-.863-.765a3.663 3.663 0 0 0-4.86 5.48l.863.765a12.067 12.067 0 0 1 4.09 9.026c-7.931-.292-15.341 4.64-17.984 12.345-12.598.917-25.972 1.896-39.232 2.89a3.662 3.662 0 0 0-3.263 2.705L9.794 84.188l.002.001a3.66 3.66 0 0 0 1.476 3.976l85.954 58.417a3.66 3.66 0 0 0 2.414.616c.102.002.229.008.379.013 2.076.072 7.593.262 13.329-2.342 7.249-3.292 12.181-9.649 14.659-18.895l12.637-47.165c.262-.977 6.212-24.12-10.944-41.584Zm-47.146-1.026c5.852 1.568 9.337 7.604 7.769 13.456-1.568 5.851-7.604 9.336-13.456 7.768-5.851-1.568-9.336-7.604-7.768-13.455 1.568-5.852 7.604-9.337 13.455-7.769ZM61.462 48.274c.608 7.5 5.837 14.168 13.51 16.224 9.753 2.613 19.814-3.195 22.427-12.948.532-1.987.71-3.987.58-5.935 8.073-.59 17.793-1.304 27.637-2.041 12.838 14.379 8.007 33.146 7.955 33.34-4.396 16.407-18.852 23.071-23.617 24.855L92.226 89.68a3.662 3.662 0 0 0-5.601 2.078l-3.886 14.503a3.667 3.667 0 0 1-4.485 2.59 3.666 3.666 0 0 1-2.59-4.485l5.213-19.456a3.662 3.662 0 0 0-1.481-3.978L34.197 50.275a20390.2 20390.2 0 0 1 27.265-2.001Zm8.618 48.634L22.598 64.702l3.049-11.377L73.128 85.53 70.08 96.908ZM20.59 72.19l47.655 32.323c-.378 5.152 2.942 10.026 8.112 11.411 2.634.706 5.305.385 7.589-.712l16.184 11.036-3.049 11.379-79.54-54.058 3.05-11.38Zm81.548 46.563-12.963-8.84c.257-.558.473-1.144.638-1.757l2.55-9.517 12.822 8.744-3.047 11.37Zm18.794 5.324c-2.593 9.676-8.122 14.841-16.845 15.7l8.336-31.108c3.089-1.139 9.158-3.811 15.022-8.898l-6.513 24.306Z" fill="#FFF9F5"/><path d="M120.223 60.7a3.662 3.662 0 1 0 1.895-7.076 3.662 3.662 0 0 0-1.895 7.076Zm.293 17.77a3.662 3.662 0 1 0 1.895-7.075 3.662 3.662 0 0 0-1.895 7.076Zm-15.583 10.991a3.663 3.663 0 1 0 1.896-7.077 3.663 3.663 0 0 0-1.896 7.077Zm-2.651-18.403a3.662 3.662 0 1 0 1.895-7.075 3.662 3.662 0 0 0-1.895 7.075Z" fill="#FFF9F5"/></svg>