<svg width="32" height="32" fill="none" xmlns="http://www.w3.org/2000/svg"><path d="M0 16C0 7.163 7.163 0 16 0s16 7.163 16 16-7.163 16-16 16S0 24.837 0 16Z" fill="url(#a)"/><path d="M0 16C0 7.163 7.163 0 16 0s16 7.163 16 16-7.163 16-16 16S0 24.837 0 16Z" fill="url(#b)"/><path d="M16.003 8.13c2.565 0 2.866.012 3.88.058.937.042 1.444.198 1.784.331.45.176.77.381 1.105.717.335.335.545.655.716 1.105.13.34.29.846.332 1.784.046 1.014.057 1.315.057 3.88s-.011 2.866-.057 3.88c-.042.938-.198 1.445-.332 1.784a2.98 2.98 0 0 1-.716 1.105 2.934 2.934 0 0 1-1.105.717c-.34.13-.847.29-1.784.332-1.014.045-1.315.057-3.88.057-2.566 0-2.867-.012-3.88-.057-.938-.042-1.445-.199-1.784-.332a2.981 2.981 0 0 1-1.106-.717 2.934 2.934 0 0 1-.716-1.105c-.13-.34-.29-.846-.332-1.784-.046-1.014-.057-1.315-.057-3.88s.011-2.866.057-3.88c.042-.938.198-1.445.332-1.784.175-.45.38-.77.716-1.105a2.933 2.933 0 0 1 1.106-.717c.339-.13.846-.29 1.783-.331 1.014-.05 1.32-.058 3.88-.058Zm0-1.73c-2.608 0-2.935.011-3.96.057-1.022.046-1.72.21-2.33.446a4.68 4.68 0 0 0-1.7 1.11 4.763 4.763 0 0 0-1.109 1.7c-.236.61-.4 1.307-.446 2.332-.045 1.021-.057 1.35-.057 3.956 0 2.607.012 2.935.057 3.96.046 1.022.21 1.72.446 2.333a4.68 4.68 0 0 0 1.11 1.7 4.764 4.764 0 0 0 1.7 1.11c.61.236 1.307.4 2.332.445 1.025.046 1.35.057 3.96.057 2.611 0 2.935-.011 3.96-.057 1.022-.046 1.72-.21 2.333-.446a4.681 4.681 0 0 0 1.7-1.109 4.762 4.762 0 0 0 1.11-1.7c.236-.61.4-1.307.445-2.332.046-1.026.057-1.35.057-3.96 0-2.612-.011-2.936-.057-3.96-.045-1.022-.21-1.72-.446-2.334A4.679 4.679 0 0 0 24 8.008 4.762 4.762 0 0 0 22.3 6.9c-.61-.236-1.307-.4-2.332-.446-1.03-.042-1.357-.053-3.964-.053Z" fill="#fff"/><path d="M16.003 11.073a4.933 4.933 0 1 0 .001 9.866 4.933 4.933 0 0 0-.001-9.866Zm0 8.13a3.201 3.201 0 1 1-.001-6.403 3.201 3.201 0 0 1 0 6.403Zm5.127-7.177a1.151 1.151 0 1 0-.001-2.302 1.151 1.151 0 0 0 0 2.302Z" fill="#fff"/><defs><radialGradient id="a" cx="0" cy="0" r="1" gradientUnits="userSpaceOnUse" gradientTransform="matrix(0 -31.7144 29.4969 0 8.5 34.465)"><stop stop-color="#FD5"/><stop offset=".1" stop-color="#FD5"/><stop offset=".5" stop-color="#FF543E"/><stop offset="1" stop-color="#C837AB"/></radialGradient><radialGradient id="b" cx="0" cy="0" r="1" gradientUnits="userSpaceOnUse" gradientTransform="matrix(2.78254 13.90074 -57.29922 11.4697 -5.36 2.305)"><stop stop-color="#3771C8"/><stop offset=".128" stop-color="#3771C8"/><stop offset="1" stop-color="#60F" stop-opacity="0"/></radialGradient></defs></svg>