<svg width="18" height="18" fill="none" xmlns="http://www.w3.org/2000/svg"><path d="M13.733 11.1a2.291 2.291 0 0 0-3.2-.5l-.941.683A13.258 13.258 0 0 1 6.4 6.9l.933-.683a2.3 2.3 0 0 0 .509-3.209l-.967-1.341A2.242 2.242 0 0 0 5.383.75a2.275 2.275 0 0 0-1.666.408l-1.484 1.05A3.117 3.117 0 0 0 .983 5.25a16.267 16.267 0 0 0 8.5 11.667c.446.229.94.349 1.442.35a3.076 3.076 0 0 0 1.833-.6l1.45-1a2.292 2.292 0 0 0 .509-3.2l-.984-1.367Zm-.258 3.542-1.45 1.025a1.884 1.884 0 0 1-1.967.15A15.001 15.001 0 0 1 2.217 4.983a1.867 1.867 0 0 1 .75-1.825l1.441-.991c.181-.128.396-.198.617-.2h.158a1.042 1.042 0 0 1 .684.416L6.85 3.75a1.042 1.042 0 0 1-.233 1.45l-1.35.983a.625.625 0 0 0-.209.742 14.383 14.383 0 0 0 4.092 5.633.616.616 0 0 0 .767 0l1.35-.975a1.042 1.042 0 0 1 1.458.234l.975 1.35a1.05 1.05 0 0 1-.225 1.475ZM9.908 3.925a.617.617 0 0 1 .834-.367 5.108 5.108 0 0 1 3.333 4.609.625.625 0 0 1-.6.641.625.625 0 0 1-.625-.6 3.867 3.867 0 0 0-2.5-3.483.625.625 0 0 1-.442-.8Zm7.15 4.083a.633.633 0 0 1-.566.684h-.059a.633.633 0 0 1-.625-.567A7.5 7.5 0 0 0 11.292 1.9a.625.625 0 1 1 .491-1.15 8.709 8.709 0 0 1 5.275 7.258Z" fill="#5D0A0A"/></svg>