<svg width="154" height="154" viewBox="0 0 154 154" fill="none" xmlns="http://www.w3.org/2000/svg">
<path d="M129.701 37.2247C128.946 36.4557 127.89 36.0588 126.815 36.1392C115.78 36.9667 104.785 37.7741 95.9755 38.4177C94.1828 34.948 91.2917 32.0601 87.6308 30.3055C88.1917 24.2049 85.8551 18.18 81.1536 14.0108L80.2911 13.2461C78.7786 11.9046 76.4636 12.0434 75.1215 13.5564C73.7796 15.0695 73.9184 17.3842 75.4318 18.726L76.2943 19.4906C78.9339 21.8315 80.3769 25.1104 80.3841 28.5169C72.4528 28.2249 65.0427 33.157 62.4001 40.8621C49.802 41.7792 36.4279 42.7581 23.1678 43.7528C21.6158 43.869 20.3073 44.9538 19.9046 46.4567L19.9044 46.4567L9.79421 84.1882L9.79728 84.1891C9.40543 85.6524 9.9496 87.2655 11.2732 88.1648L97.2274 146.582C97.5703 146.815 97.946 146.985 98.338 147.09C98.7608 147.204 99.202 147.241 99.6406 147.198C99.7427 147.2 99.8699 147.206 100.02 147.211C102.096 147.283 107.613 147.473 113.349 144.869C120.598 141.577 125.53 135.22 128.008 125.974L140.645 78.8091C140.907 77.8324 146.857 54.6892 129.701 37.2247ZM82.5554 36.1993C88.4069 37.7672 91.8919 43.8033 90.324 49.6548C88.7561 55.5063 82.7199 58.9912 76.8685 57.4233C71.017 55.8554 67.5321 49.8193 69.1 43.9678C70.6679 38.1164 76.704 34.6314 82.5554 36.1993ZM61.4621 48.2737C62.0702 55.7739 67.2987 62.4417 74.9728 64.498C84.7253 67.1112 94.7855 61.3029 97.3986 51.5505C97.9313 49.5625 98.1085 47.5626 97.9793 45.6149C106.052 45.0247 115.772 44.3107 125.616 43.5736C138.454 57.9526 133.623 76.7203 133.571 76.9135C129.175 93.3206 114.719 99.9851 109.954 101.769L92.2255 89.6803C91.2452 89.012 90.0013 88.8594 88.8884 89.2727C87.7757 89.6853 86.9322 90.6119 86.625 91.7582L82.7389 106.261C82.2163 108.212 80.2043 109.373 78.2538 108.851C76.3033 108.328 75.1416 106.316 75.6643 104.366L80.8773 84.9103C81.281 83.4038 80.6864 81.8071 79.3956 80.9317L34.1975 50.2746C43.4447 49.5889 52.6329 48.917 61.4621 48.2737ZM70.0799 96.9079L22.5982 64.7019L25.6466 53.3249L73.1284 85.5308L70.0799 96.9079ZM20.5915 72.1909L68.2459 104.514C67.868 109.666 71.1877 114.54 76.3581 115.925C78.9923 116.631 81.6626 116.31 83.947 115.213L100.131 126.249L97.0822 137.628L17.5424 83.5703L20.5915 72.1909ZM102.139 118.754L89.176 109.914C89.4332 109.356 89.6492 108.77 89.8135 108.157L92.3636 98.6401L105.186 107.384L102.139 118.754ZM120.933 124.078C118.34 133.754 112.811 138.919 104.088 139.778L112.424 108.67C115.513 107.531 121.582 104.859 127.446 99.7718L120.933 124.078Z" fill="#FFF9F5"/>
<path d="M120.223 60.6997C122.176 61.2232 124.184 60.0639 124.708 58.1102C125.231 56.1566 124.072 54.1485 122.118 53.6251C120.165 53.1016 118.156 54.261 117.633 56.2146C117.11 58.1682 118.269 60.1763 120.223 60.6997Z" fill="#FFF9F5"/>
<path d="M120.516 78.4707C122.469 78.9942 124.477 77.8348 125.001 75.8812C125.524 73.9276 124.365 71.9195 122.411 71.3961C120.458 70.8726 118.45 72.032 117.926 73.9856C117.403 75.9392 118.562 77.9473 120.516 78.4707Z" fill="#FFF9F5"/>
<path d="M104.933 89.461C106.887 89.9844 108.895 88.8251 109.419 86.8715C109.942 84.9178 108.783 82.9098 106.829 82.3863C104.875 81.8628 102.867 83.0222 102.344 84.9758C101.82 86.9294 102.98 88.9375 104.933 89.461Z" fill="#FFF9F5"/>
<path d="M102.282 71.0577C104.235 71.5811 106.244 70.4218 106.767 68.4681C107.291 66.5145 106.131 64.5065 104.178 63.983C102.224 63.4595 100.216 64.6189 99.6924 66.5725C99.1689 68.5261 100.328 70.5342 102.282 71.0577Z" fill="#FFF9F5"/>
</svg>
