<svg width="40" height="40" viewBox="0 0 40 40" fill="none" xmlns="http://www.w3.org/2000/svg">
<path d="M33.173 3.44345C32.8759 3.2683 32.5166 3.23306 32.191 3.34697C28.8488 4.51666 25.517 5.67689 22.8474 6.60541C22.0059 5.68142 20.8731 5.02822 19.5963 4.78908C19.2644 2.85697 18.0431 1.18822 16.2446 0.288923L15.9147 0.124001C15.3361 -0.165374 14.632 0.0692352 14.3425 0.648063C14.053 1.22689 14.2877 1.93088 14.8666 2.22025L15.1965 2.38517C16.2062 2.89009 16.9238 3.78408 17.2082 4.83642C14.7325 5.40306 12.8505 7.54127 12.6719 10.1417C8.85383 11.4686 4.80102 12.8788 0.784766 14.2845C0.314687 14.449 7.8125e-05 14.8927 7.8125e-05 15.3906H0V27.8906H0.00101562C0.00109375 28.3753 0.302891 28.8288 0.786484 28.9972L32.1927 39.9347C32.318 39.9785 32.4483 39.9999 32.5781 39.9999C32.7182 39.9999 32.8577 39.9749 32.9897 39.9253C33.0214 39.9175 33.0612 39.9087 33.108 39.8978C33.7558 39.7481 35.4766 39.3502 37.0338 38.07C39.002 36.4521 40 34.0786 40 31.0156V15.3906C40 15.067 39.9224 7.42072 33.173 3.44345ZM18.5156 7.03119C20.4541 7.03119 22.0312 8.6083 22.0312 10.5468C22.0312 12.4853 20.4541 14.0624 18.5156 14.0624C16.5771 14.0624 15 12.4853 15 10.5468C15 8.6083 16.5771 7.03119 18.5156 7.03119ZM12.9958 12.5103C13.8049 14.7782 15.9733 16.4062 18.5156 16.4062C21.7465 16.4062 24.375 13.7777 24.375 10.5468C24.375 9.88822 24.2641 9.25541 24.0629 8.66408C26.5092 7.81306 29.4546 6.78728 32.4361 5.74424C37.5953 9.12541 37.6562 15.3266 37.6562 15.3906C37.6562 20.826 33.7401 24.0832 32.4148 25.0293L25.934 22.761C25.5756 22.6356 25.1785 22.6915 24.8688 22.9114C24.559 23.1311 24.375 23.4874 24.375 23.8671V28.6718C24.375 29.318 23.8493 29.8437 23.2031 29.8437C22.557 29.8437 22.0312 29.318 22.0312 28.6718V22.2265C22.0312 21.7274 21.7152 21.2831 21.2438 21.1195L4.73414 15.3869C7.53562 14.4091 10.32 13.4404 12.9958 12.5103ZM19.6875 26.8292L2.34375 20.807V17.0379L19.6875 23.0601V26.8292ZM2.34375 23.288L19.7505 29.332C20.0605 30.956 21.4902 32.1874 23.2031 32.1874C24.0758 32.1874 24.8746 31.8671 25.4898 31.3388L31.4062 33.4095V37.1791L2.34375 27.0578V23.288ZM31.4062 30.9263L26.6672 29.2678C26.7005 29.0739 26.7188 28.875 26.7188 28.6719V25.519L31.4062 27.1596V30.9263ZM37.6562 31.0156C37.6562 34.2212 36.375 36.2756 33.75 37.2636V26.9577C34.6106 26.3499 36.2652 25.0213 37.6562 22.9632V31.0156Z" fill="#5D0A0A"/>
<path d="M32.1875 11.4843C32.8347 11.4843 33.3594 10.9596 33.3594 10.3124C33.3594 9.66523 32.8347 9.14056 32.1875 9.14056C31.5403 9.14056 31.0156 9.66523 31.0156 10.3124C31.0156 10.9596 31.5403 11.4843 32.1875 11.4843Z" fill="#5D0A0A"/>
<path d="M33.75 16.9531C34.3972 16.9531 34.9219 16.4284 34.9219 15.7812C34.9219 15.134 34.3972 14.6093 33.75 14.6093C33.1028 14.6093 32.5781 15.134 32.5781 15.7812C32.5781 16.4284 33.1028 16.9531 33.75 16.9531Z" fill="#5D0A0A"/>
<path d="M29.8438 21.6406C30.491 21.6406 31.0156 21.1159 31.0156 20.4687C31.0156 19.8215 30.491 19.2968 29.8438 19.2968C29.1965 19.2968 28.6719 19.8215 28.6719 20.4687C28.6719 21.1159 29.1965 21.6406 29.8438 21.6406Z" fill="#5D0A0A"/>
<path d="M27.5 16.1718C28.1472 16.1718 28.6719 15.6471 28.6719 14.9999C28.6719 14.3527 28.1472 13.8281 27.5 13.8281C26.8528 13.8281 26.3281 14.3527 26.3281 14.9999C26.3281 15.6471 26.8528 16.1718 27.5 16.1718Z" fill="#5D0A0A"/>
</svg>
