<svg width="40" height="40" fill="none" xmlns="http://www.w3.org/2000/svg"><path d="M33.173 3.443a1.172 1.172 0 0 0-.982-.096c-3.342 1.17-6.674 2.33-9.344 3.258a5.857 5.857 0 0 0-3.25-1.816 6.189 6.189 0 0 0-3.352-4.5l-.33-.165a1.172 1.172 0 0 0-1.048 2.096l.33.165a3.862 3.862 0 0 1 2.011 2.451 5.87 5.87 0 0 0-4.536 5.306A5409.43 5409.43 0 0 0 .785 14.285c-.47.164-.785.608-.785 1.106v12.5h.001c0 .484.302.938.785 1.106l31.407 10.938a1.167 1.167 0 0 0 .797-.01l.118-.027c.648-.15 2.369-.548 3.926-1.828C39.002 36.452 40 34.079 40 31.016V15.39c0-.324-.078-7.97-6.827-11.948ZM18.516 7.031a3.52 3.52 0 0 1 3.515 3.516 3.52 3.52 0 0 1-3.515 3.515A3.52 3.52 0 0 1 15 10.547a3.52 3.52 0 0 1 3.516-3.516Zm-5.52 5.48a5.869 5.869 0 0 0 5.52 3.895 5.866 5.866 0 0 0 5.859-5.86c0-.658-.11-1.29-.312-1.882a5139.28 5139.28 0 0 0 8.373-2.92c5.16 3.381 5.22 9.583 5.22 9.647 0 5.435-3.916 8.692-5.241 9.638l-6.481-2.268a1.172 1.172 0 0 0-1.559 1.106v4.805c0 .646-.526 1.172-1.172 1.172a1.173 1.173 0 0 1-1.172-1.172v-6.445c0-.5-.316-.944-.787-1.108l-16.51-5.732a6549.55 6549.55 0 0 1 8.262-2.877Zm6.691 14.318L2.345 20.807v-3.77l17.343 6.023v3.77ZM2.345 23.288l17.406 6.044a3.52 3.52 0 0 0 3.453 2.855 3.5 3.5 0 0 0 2.287-.848l5.916 2.07v3.77L2.344 27.058v-3.77Zm29.062 7.638-4.739-1.658a3.45 3.45 0 0 0 .052-.596v-3.153l4.687 1.64v3.767Zm6.25.09c0 3.205-1.281 5.26-3.906 6.248V26.958a15.934 15.934 0 0 0 3.906-3.995v8.053Z" fill="#5D0A0A"/><path d="M32.188 11.484a1.172 1.172 0 1 0 0-2.344 1.172 1.172 0 0 0 0 2.344Zm1.562 5.469a1.172 1.172 0 1 0 0-2.344 1.172 1.172 0 0 0 0 2.344Zm-3.906 4.687a1.172 1.172 0 1 0 0-2.343 1.172 1.172 0 0 0 0 2.344ZM27.5 16.172a1.172 1.172 0 1 0 0-2.344 1.172 1.172 0 0 0 0 2.344Z" fill="#5D0A0A"/></svg>