<svg width="12" height="17" viewBox="0 0 12 17" fill="none" xmlns="http://www.w3.org/2000/svg">
<path d="M6 0.5C4.40935 0.50211 2.88445 1.13493 1.75969 2.25969C0.634929 3.38445 0.00211004 4.90935 0 6.5C0 10.8075 5.59 16.2025 5.8275 16.43C5.8737 16.4749 5.93558 16.5 6 16.5C6.06442 16.5 6.1263 16.4749 6.1725 16.43C6.41 16.2025 12 10.8075 12 6.5C11.9979 4.90935 11.3651 3.38445 10.2403 2.25969C9.11555 1.13493 7.59065 0.50211 6 0.5ZM6 9.25C5.4561 9.25 4.92442 9.08871 4.47218 8.78654C4.01995 8.48437 3.66747 8.05488 3.45933 7.55238C3.25119 7.04988 3.19673 6.49695 3.30284 5.9635C3.40895 5.43005 3.67086 4.94005 4.05546 4.55546C4.44005 4.17086 4.93005 3.90895 5.4635 3.80284C5.99695 3.69673 6.54988 3.75119 7.05238 3.95933C7.55488 4.16747 7.98437 4.51995 8.28654 4.97218C8.58871 5.42442 8.75 5.9561 8.75 6.5C8.74956 7.22921 8.45969 7.92843 7.94406 8.44406C7.42843 8.95969 6.72921 9.24956 6 9.25Z" fill="white"/>
</svg>
