<svg width="18" height="18" viewBox="0 0 18 18" fill="none" xmlns="http://www.w3.org/2000/svg">
<path d="M13.7334 11.1C13.3751 10.6097 12.8369 10.2816 12.2369 10.1879C11.6369 10.0941 11.0242 10.2423 10.5334 10.6L9.59176 11.2833C8.23727 10.0577 7.15066 8.56537 6.40009 6.89999L7.33342 6.21666C7.82561 5.85811 8.15551 5.31901 8.25081 4.71757C8.3461 4.11614 8.199 3.50146 7.84176 3.00833L6.87509 1.66666C6.70067 1.42161 6.47872 1.21416 6.22245 1.05668C5.96618 0.899193 5.68084 0.794895 5.38342 0.749993C4.79587 0.663335 4.19771 0.809882 3.71676 1.15833L2.23342 2.20833C1.76223 2.54839 1.39549 3.01341 1.17461 3.55088C0.953732 4.08835 0.88751 4.67687 0.983423 5.24999C1.40684 7.71762 2.39415 10.0542 3.86847 12.0778C5.34279 14.1014 7.26433 15.7573 9.48342 16.9167C9.92949 17.1458 10.4236 17.2658 10.9251 17.2667C11.5847 17.2685 12.2275 17.0581 12.7584 16.6667L14.2084 15.6667C14.7001 15.3096 15.0298 14.772 15.1251 14.1719C15.2204 13.5718 15.0735 12.9585 14.7168 12.4667L13.7334 11.1ZM13.4751 14.6417L12.0251 15.6667C11.7432 15.871 11.4101 15.9932 11.063 16.0197C10.7158 16.0462 10.3681 15.9759 10.0584 15.8167C8.00242 14.7405 6.22414 13.2021 4.86345 11.3223C3.50276 9.44247 2.59677 7.27259 2.21676 4.98333C2.15881 4.63944 2.19836 4.28619 2.33092 3.96363C2.46348 3.64107 2.68375 3.3621 2.96676 3.15833L4.40842 2.16666C4.58898 2.03909 4.80403 1.96935 5.02509 1.96666H5.18342C5.31917 1.98763 5.44943 2.03524 5.5667 2.10675C5.68398 2.17825 5.78595 2.27225 5.86676 2.38333L6.85009 3.74999C7.0106 3.9735 7.07616 4.25144 7.03244 4.52311C6.98872 4.79479 6.83928 5.03813 6.61676 5.19999L5.26676 6.18333C5.15418 6.26591 5.07249 6.38382 5.03473 6.51825C4.99698 6.65267 5.00532 6.79586 5.05842 6.92499C5.94039 9.10952 7.34544 11.044 9.15009 12.5583C9.25913 12.6449 9.39423 12.6919 9.53342 12.6919C9.67262 12.6919 9.80772 12.6449 9.91676 12.5583L11.2668 11.5833C11.3777 11.5026 11.5035 11.4445 11.637 11.4125C11.7704 11.3805 11.9089 11.3752 12.0444 11.3969C12.1799 11.4186 12.3098 11.4668 12.4266 11.5388C12.5435 11.6109 12.6449 11.7053 12.7251 11.8167L13.7001 13.1667C13.7828 13.278 13.8426 13.4047 13.8761 13.5393C13.9096 13.674 13.9161 13.8139 13.8952 13.9511C13.8742 14.0882 13.8263 14.2199 13.7542 14.3384C13.6821 14.4569 13.5873 14.56 13.4751 14.6417ZM9.90842 3.92499C9.93585 3.84385 9.97987 3.76931 10.0377 3.70612C10.0955 3.64293 10.1659 3.59248 10.2443 3.55799C10.3227 3.52349 10.4074 3.50571 10.4931 3.50576C10.5787 3.50582 10.6634 3.52372 10.7418 3.55833C11.6916 3.90955 12.5156 4.53516 13.1091 5.35569C13.7026 6.17622 14.0388 7.15463 14.0751 8.16666C14.0796 8.33104 14.0192 8.49058 13.9068 8.61069C13.7945 8.7308 13.6394 8.80181 13.4751 8.80833C13.3136 8.80846 13.1583 8.74605 13.0418 8.63419C12.9252 8.52234 12.8566 8.36972 12.8501 8.20833C12.8235 7.44584 12.572 6.70825 12.1271 6.08841C11.6823 5.46857 11.064 4.99419 10.3501 4.72499C10.267 4.70408 10.1891 4.6663 10.1212 4.614C10.0533 4.56169 9.99686 4.49599 9.95543 4.42096C9.91401 4.34593 9.88846 4.26318 9.88038 4.17786C9.87229 4.09254 9.88184 4.00647 9.90842 3.92499ZM17.0584 8.00833C17.0724 8.17377 17.0208 8.33809 16.9148 8.46589C16.8089 8.5937 16.6569 8.67477 16.4918 8.69166H16.4334C16.2778 8.69048 16.1281 8.63205 16.0128 8.52754C15.8976 8.42302 15.8248 8.27973 15.8084 8.12499C15.6876 6.7763 15.204 5.48546 14.4088 4.38947C13.6135 3.29348 12.5364 2.43322 11.2918 1.89999C11.1393 1.83479 11.0189 1.71169 10.9572 1.55775C10.8954 1.40381 10.8974 1.23166 10.9626 1.07916C11.0278 0.92666 11.1509 0.806307 11.3048 0.744576C11.4588 0.682846 11.6309 0.684794 11.7834 0.749993C13.2386 1.36718 14.4984 2.36881 15.4277 3.64748C16.357 4.92616 16.9207 6.43365 17.0584 8.00833Z" fill="#5D0A0A"/>
</svg>
