<svg width="16" height="17" viewBox="0 0 16 17" fill="none" xmlns="http://www.w3.org/2000/svg">
<path d="M15.5633 12.2424L13.3305 10.0095C12.5331 9.21209 11.1774 9.5311 10.8584 10.5678C10.6192 11.2855 9.82174 11.6842 9.10404 11.5247C7.50915 11.126 5.35604 9.0526 4.95732 7.37797C4.71809 6.66024 5.19656 5.86279 5.91426 5.62359C6.95094 5.30461 7.26991 3.94895 6.47247 3.15151L4.23962 0.918659C3.60166 0.360447 2.64473 0.360447 2.08652 0.918659L0.57137 2.43381C-0.943776 4.0287 0.73086 8.25516 4.47885 12.0032C8.22685 15.7511 12.4533 17.5056 14.0482 15.9106L15.5633 14.3955C16.1216 13.7575 16.1216 12.8006 15.5633 12.2424Z" fill="white"/>
</svg>
